#N canvas 0 0 1440 828 10;
#X obj 63 147 noteout;
#X msg 100 116 0 0 1;
#X obj 188 145 noteout;
#X msg 229 118 1 0 1;
#X obj 329 144 noteout;
#X obj 466 146 noteout;
#X msg 41 117 0 50 1;
#X msg 364 117 2 0 1;
#X msg 508 119 3 0 1;
#X msg 303 117 2 50 1;
#X obj 73 219 noteout;
#X obj 187 217 noteout;
#X obj 326 215 noteout;
#X obj 466 216 noteout;
#X msg 41 188 4 50 1;
#X msg 100 186 4 0 1;
#X msg 170 186 5 50 1;
#X msg 231 187 5 0 1;
#X msg 504 188 7 0 1;
#X msg 368 185 6 0 1;
#X obj 73 292 noteout;
#X obj 190 295 noteout;
#X obj 321 293 noteout;
#X obj 469 294 noteout;
#X obj 85 369 noteout;
#X obj 193 367 noteout;
#X obj 320 370 noteout;
#X msg 42 261 8 50 1;
#X msg 101 261 8 0 1;
#X msg 173 261 9 50 1;
#X msg 233 262 9 0 1;
#X msg 368 263 10 0 1;
#X msg 446 263 11 50 1;
#X msg 506 263 11 0 1;
#X msg 38 338 12 50 1;
#X msg 98 339 12 0 1;
#X msg 176 336 13 50 1;
#X msg 234 335 13 0 1;
#X msg 369 335 14 0 1;
#X msg 445 337 15 50 1;
#X msg 507 337 15 0 1;
#X obj 467 369 noteout;
#X text 71 95 LED 0;
#X text 330 93 LED 2;
#X text 472 93 LED 3;
#X text 68 167 LED 4;
#X text 195 166 LED 5;
#X text 327 165 LED 6;
#X text 469 165 LED 7;
#X text 68 242 LED 8;
#X text 195 241 LED 9;
#X text 327 240 LED 10;
#X text 469 240 LED 11;
#X text 70 320 LED 12;
#X text 197 319 LED 13;
#X text 329 318 LED 14;
#X text 471 318 LED 15;
#X msg 444 187 7 50 1;
#X floatatom 718 192 5 0 0 0 - - -;
#X floatatom 763 191 5 0 0 0 - - -;
#X obj 718 158 notein 1;
#X obj 736 231 noteout 1;
#X msg 171 120 1 50 1;
#X msg 301 188 6 50 1;
#X msg 302 264 10 50 1;
#X text 238 112 LED 1;
#X msg 442 119 3 50 1;
#X msg 304 336 14 120 1;
#X text 2018 408 Y;
#X msg 62 483 0 0 1;
#X msg 115 483 1 0 1;
#X msg 171 485 2 0 1;
#X msg 231 485 3 0 1;
#X msg 59 512 4 0 1;
#X msg 114 511 5 0 1;
#X msg 224 513 7 0 1;
#X msg 172 512 6 0 1;
#X msg 60 538 8 0 1;
#X msg 116 537 9 0 1;
#X msg 172 541 10 0 1;
#X msg 226 539 11 0 1;
#X msg 54 569 12 0 1;
#X msg 114 563 13 0 1;
#X msg 170 566 14 0 1;
#X msg 224 566 15 0 1;
#X obj 140 437 bng 15 250 50 0 empty empty empty 17 7 0 10 -262144
-1 -1;
#X obj 123 615 noteout;
#X obj 381 435 bng 15 250 50 0 empty empty empty 17 7 0 10 -262144
-1 -1;
#X obj 365 614 noteout;
#X text 121 413 ALL LEDS OFF;
#X msg 304 482 0 127 1;
#X msg 357 482 1 127 1;
#X msg 413 484 2 127 1;
#X msg 471 485 3 127 1;
#X msg 301 511 4 127 1;
#X msg 356 510 5 127 1;
#X msg 414 511 6 127 1;
#X msg 472 513 7 127 1;
#X msg 474 539 11 127 1;
#X msg 414 540 10 127 1;
#X msg 358 536 9 127 1;
#X msg 302 537 8 127 1;
#X msg 296 568 12 127 1;
#X msg 356 562 13 127 1;
#X msg 412 565 14 127 1;
#X msg 472 566 15 127 1;
#X text 342 415 ALL LEDS ON;
#X text 121 413 ALL LEDS OFF;
#X text 123 41 Asegurarse que en "Media -> Preferencias de MIDI" el
dispositivo de salida sea "HIDUINO" o el puerto MIDI virtual utilizado
\, si se utiliza un intermediario;
#X text 255 8 LEDS;
#X text 726 37 Asegurarse que en "Media -> Preferencias de MIDI" el
dispositivo de entrada sea "HIDUINO" o el puerto MIDI virtual utilizado
\, si se utiliza un intermediario. Encender el DSP \, en "Media ->
DSP Encendido";
#X text 819 8 BOTONES y POTENCIOMETROS;
#X text 625 249 MIDI THRU \, lo que llega se envía al OUT para los
LEDS;
#X obj 984 157 ctlin;
#X obj 1017 355 hsl 128 15 0 127 0 0 empty empty empty -2 -8 0 10 -262144
-1 -1 0 1;
#X obj 983 205 pack;
#X obj 988 292 hsl 128 15 0 127 0 0 empty empty empty -2 -8 0 10 -262144
-1 -1 8200 1;
#X obj 1001 324 hsl 128 15 0 127 0 0 empty empty empty -2 -8 0 10 -262144
-1 -1 0 1;
#X obj 1033 381 hsl 128 15 0 127 0 0 empty empty empty -2 -8 0 10 -262144
-1 -1 0 1;
#X obj 1049 407 hsl 128 15 0 127 0 0 empty empty empty -2 -8 0 10 -262144
-1 -1 2200 1;
#X obj 1065 433 hsl 128 15 0 127 0 0 empty empty empty -2 -8 0 10 -262144
-1 -1 0 1;
#X obj 1081 457 hsl 128 15 0 127 0 0 empty empty empty -2 -8 0 10 -262144
-1 -1 4100 1;
#X obj 1129 541 hsl 128 15 0 127 0 0 empty empty empty -2 -8 0 10 -262144
-1 -1 8000 1;
#X obj 1098 484 hsl 128 15 0 127 0 0 empty empty empty -2 -8 0 10 -262144
-1 -1 0 1;
#X obj 1113 510 hsl 128 15 0 127 0 0 empty empty empty -2 -8 0 10 -262144
-1 -1 0 1;
#X obj 1145 567 hsl 128 15 0 127 0 0 empty empty empty -2 -8 0 10 -262144
-1 -1 2300 1;
#X obj 1161 593 hsl 128 15 0 127 0 0 empty empty empty -2 -8 0 10 -262144
-1 -1 7600 1;
#X obj 1177 619 hsl 128 15 0 127 0 0 empty empty empty -2 -8 0 10 -262144
-1 -1 0 1;
#X obj 1193 643 hsl 128 15 0 127 0 0 empty empty empty -2 -8 0 10 -262144
-1 -1 0 1;
#X obj 1208 670 hsl 128 15 0 127 0 0 empty empty empty -2 -8 0 10 -262144
-1 -1 0 1;
#X obj 1224 694 hsl 128 15 0 127 0 0 empty empty empty -2 -8 0 10 -262144
-1 -1 0 1;
#X floatatom 1032 202 5 0 0 0 - - -;
#X floatatom 1108 202 5 0 0 0 - - -;
#X text 1031 222 CONTROLLER;
#X text 1106 222 VALOR;
#X text 938 296 CC 0;
#X text 953 322 CC 1;
#X text 973 353 CC 2;
#X text 988 379 CC 3;
#X text 1008 406 CC 4;
#X text 1023 432 CC 5;
#X text 1041 457 CC 6;
#X text 1058 483 CC 7;
#X text 1074 510 CC 8;
#X text 1090 541 CC 9;
#X text 1105 566 CC 10;
#X text 1121 592 CC 11;
#X text 1133 618 CC 12;
#X text 1148 644 CC 13;
#X text 1163 668 CC 14;
#X text 1178 693 CC 15;
#X text 991 113 CONTROLLERS (CCs);
#X obj 726 547 dac~;
#X obj 736 426 mtof;
#X obj 736 460 osc~;
#X obj 736 388 +;
#X obj 751 355 / 2;
#X text 685 192 NOTE;
#X text 798 191 VELOCITY;
#X text 773 114 NOTES;
#X obj 997 253 route 0 1 2 3 4 5 6 7 8 9 10 11 12 13 14 15;
#X connect 1 0 0 0;
#X connect 3 0 2 0;
#X connect 6 0 0 0;
#X connect 7 0 4 0;
#X connect 8 0 5 0;
#X connect 9 0 4 0;
#X connect 14 0 10 0;
#X connect 15 0 10 0;
#X connect 16 0 11 0;
#X connect 17 0 11 0;
#X connect 18 0 13 0;
#X connect 19 0 12 0;
#X connect 27 0 20 0;
#X connect 28 0 20 0;
#X connect 29 0 21 0;
#X connect 30 0 21 0;
#X connect 31 0 22 0;
#X connect 32 0 23 0;
#X connect 33 0 23 0;
#X connect 34 0 24 0;
#X connect 35 0 24 0;
#X connect 36 0 25 0;
#X connect 37 0 25 0;
#X connect 38 0 26 0;
#X connect 39 0 41 0;
#X connect 40 0 41 0;
#X connect 57 0 13 0;
#X connect 58 0 61 0;
#X connect 58 0 155 0;
#X connect 59 0 61 1;
#X connect 60 0 58 0;
#X connect 60 1 59 0;
#X connect 62 0 2 0;
#X connect 63 0 12 0;
#X connect 64 0 22 0;
#X connect 66 0 5 0;
#X connect 67 0 26 0;
#X connect 69 0 86 0;
#X connect 70 0 86 0;
#X connect 71 0 86 0;
#X connect 72 0 86 0;
#X connect 73 0 86 0;
#X connect 74 0 86 0;
#X connect 75 0 86 0;
#X connect 76 0 86 0;
#X connect 77 0 86 0;
#X connect 78 0 86 0;
#X connect 79 0 86 0;
#X connect 80 0 86 0;
#X connect 81 0 86 0;
#X connect 82 0 86 0;
#X connect 83 0 86 0;
#X connect 84 0 86 0;
#X connect 85 0 69 0;
#X connect 85 0 70 0;
#X connect 85 0 71 0;
#X connect 85 0 72 0;
#X connect 85 0 73 0;
#X connect 85 0 74 0;
#X connect 85 0 76 0;
#X connect 85 0 75 0;
#X connect 85 0 77 0;
#X connect 85 0 78 0;
#X connect 85 0 79 0;
#X connect 85 0 80 0;
#X connect 85 0 81 0;
#X connect 85 0 83 0;
#X connect 85 0 82 0;
#X connect 85 0 84 0;
#X connect 87 0 90 0;
#X connect 87 0 91 0;
#X connect 87 0 92 0;
#X connect 87 0 93 0;
#X connect 87 0 94 0;
#X connect 87 0 95 0;
#X connect 87 0 96 0;
#X connect 87 0 97 0;
#X connect 87 0 101 0;
#X connect 87 0 100 0;
#X connect 87 0 99 0;
#X connect 87 0 98 0;
#X connect 87 0 102 0;
#X connect 87 0 104 0;
#X connect 87 0 103 0;
#X connect 87 0 105 0;
#X connect 90 0 88 0;
#X connect 91 0 88 0;
#X connect 92 0 88 0;
#X connect 93 0 88 0;
#X connect 94 0 88 0;
#X connect 95 0 88 0;
#X connect 96 0 88 0;
#X connect 97 0 88 0;
#X connect 98 0 88 0;
#X connect 99 0 88 0;
#X connect 100 0 88 0;
#X connect 101 0 88 0;
#X connect 102 0 88 0;
#X connect 103 0 88 0;
#X connect 104 0 88 0;
#X connect 105 0 88 0;
#X connect 113 0 115 1;
#X connect 113 0 132 0;
#X connect 113 1 115 0;
#X connect 113 1 131 0;
#X connect 115 0 160 0;
#X connect 116 0 156 0;
#X connect 153 0 154 0;
#X connect 154 0 152 0;
#X connect 154 0 152 1;
#X connect 155 0 153 0;
#X connect 156 0 155 1;
#X connect 160 0 116 0;
#X connect 160 1 117 0;
#X connect 160 2 114 0;
#X connect 160 3 118 0;
#X connect 160 4 119 0;
#X connect 160 5 120 0;
#X connect 160 6 121 0;
#X connect 160 7 123 0;
#X connect 160 8 124 0;
#X connect 160 9 122 0;
#X connect 160 10 125 0;
#X connect 160 11 126 0;
#X connect 160 12 127 0;
#X connect 160 13 128 0;
#X connect 160 14 129 0;
#X connect 160 15 130 0;
